<svg xmlns="http://www.w3.org/2000/svg" version="1.1" xmlns:xlink="http://www.w3.org/1999/xlink" xmlns:svgjs="http://svgjs.dev/svgjs" width="2000" height="1247" viewBox="0 0 2000 1247"><g transform="matrix(1,0,0,1,-1.2121212121212466,0.504858299595071)"><svg viewBox="0 0 396 247" data-background-color="#dfdad6" preserveAspectRatio="xMidYMid meet" height="1247" width="2000" xmlns="http://www.w3.org/2000/svg" xmlns:xlink="http://www.w3.org/1999/xlink"><g id="tight-bounds" transform="matrix(1,0,0,1,0.2400000000000091,-0.09999999999999432)"><svg viewBox="0 0 395.52 247.2" height="247.2" width="395.52"><g><svg></svg></g><g><svg viewBox="0 0 395.52 247.2" height="247.2" width="395.52"><g transform="matrix(1,0,0,1,106.69660318237453,47.215199999999996)"><svg viewBox="0 0 182.12679363525092 152.7696" height="152.7696" width="182.12679363525092"><g><svg viewBox="0 0 182.12679363525092 152.7696" height="152.7696" width="182.12679363525092"><g><svg viewBox="0 0 182.12679363525092 152.7696" height="152.7696" width="182.12679363525092"><g><svg viewBox="0 0 182.12679363525092 152.7696" height="152.7696" width="182.12679363525092"><g id="textblocktransform"><svg viewBox="0 0 182.12679363525092 152.7696" height="152.7696" width="182.12679363525092" id="textblock"><g><svg viewBox="0 0 182.12679363525092 152.7696" height="152.7696" width="182.12679363525092"><g transform="matrix(1,0,0,1,0,0)"><svg width="182.12679363525092" viewBox="3.25 -33.25 48.7 40.85" height="152.7696" data-palette-color="#e33e33"><path d="M15.5-25.2L15.5-25.2Q20.55-25.2 22.73-22.23 24.9-19.25 24.9-12.5L24.9-12.5Q24.9-5.6 22.2-2.6 19.5 0.4 13.15 0.4L13.15 0.4Q10.3 0.4 7.8 0.08 5.3-0.25 3.25-0.9L3.25-0.9 3.25-33.25 7.35-33.25 7.35-23Q9.1-24.05 11.2-24.63 13.3-25.2 15.5-25.2ZM20.8-12.5L20.8-12.5Q20.8-17.55 19.38-19.53 17.95-21.5 14.05-21.5L14.05-21.5Q12.25-21.5 10.5-21.03 8.75-20.55 7.35-19.7L7.35-19.7 7.35-4.05Q8.45-3.75 9.85-3.58 11.25-3.4 12.9-3.4L12.9-3.4Q17.55-3.4 19.18-5.35 20.8-7.3 20.8-12.5ZM34.4-0.6L34.4 7.6 30.3 7.6 30.3-24.7 33.85-24.7 34.1-22.5 34.25-22.5Q35.8-23.8 37.95-24.5 40.1-25.2 42.55-25.2L42.55-25.2Q47.6-25.2 49.77-22.2 51.95-19.2 51.95-12.4L51.95-12.4Q51.95-5.6 49.3-2.6 46.65 0.4 40.45 0.4L40.45 0.4Q38.6 0.4 37.07 0.15 35.55-0.1 34.4-0.6L34.4-0.6ZM47.85-12.4L47.85-12.4Q47.85-17.5 46.42-19.5 45-21.5 41.1-21.5L41.1-21.5Q39.25-21.5 37.57-20.98 35.9-20.45 34.4-19.45L34.4-19.45 34.4-4.4Q35.65-3.9 36.97-3.65 38.3-3.4 39.95-3.4L39.95-3.4Q44.6-3.4 46.22-5.33 47.85-7.25 47.85-12.4Z" opacity="1" transform="matrix(1,0,0,1,0,0)" fill="#e33e33" class="wordmark-text-0" data-fill-palette-color="primary" id="text-0"></path></svg></g></svg></g></svg></g></svg></g></svg></g></svg></g></svg></g><g><path d="M214.663 0c30.402 0 58.24 10.976 79.769 29.183l-11.148 0c-19.26-14.022-42.974-22.294-68.621-22.295-25.647 0-49.361 8.272-68.621 22.295l-11.147 0c21.528-18.206 49.366-29.183 79.768-29.183zM338.263 123.6c0 32.896-12.851 62.79-33.806 84.937l0-10.375c16.81-20.221 26.918-46.211 26.918-74.562 0-28.351-10.109-54.341-26.918-74.562l0-10.375c20.956 22.146 33.807 52.041 33.806 84.937zM214.663 247.2c-30.402 0-58.24-10.976-79.768-29.183l11.147 0c19.26 14.022 42.974 22.294 68.621 22.295 25.647 0 49.361-8.272 68.622-22.295l11.147 0c-21.528 18.206-49.366 29.183-79.769 29.183z" fill="#e33e33" stroke="transparent" data-fill-palette-color="tertiary"></path></g></svg></g><defs></defs></svg><rect width="395.52" height="247.2" fill="none" stroke="none" visibility="hidden"></rect></g></svg></g></svg>